# Blender v2.79 (sub 0) OBJ File: ''
# www.blender.org
mtllib Cube.mtl
o Sphere
v 0.000000 0.923880 -0.382683
v 0.000000 0.707107 -0.707107
v 0.000000 0.382683 -0.923880
v 0.000000 -0.000000 -1.000000
v 0.000000 -0.382684 -0.923880
v 0.000000 -0.707107 -0.707107
v 0.000000 -0.923880 -0.382683
v 0.000000 -1.000000 -0.000000
v -0.000000 1.000000 -0.000000
v 0.146447 0.923880 -0.353553
v 0.270598 0.707107 -0.653281
v 0.353553 0.382683 -0.853553
v 0.382683 -0.000000 -0.923880
v 0.353553 -0.382684 -0.853553
v 0.270598 -0.707107 -0.653281
v 0.146447 -0.923880 -0.353553
v 0.270598 0.923880 -0.270598
v 0.500000 0.707107 -0.500000
v 0.653281 0.382683 -0.653281
v 0.707107 -0.000000 -0.707107
v 0.653281 -0.382684 -0.653281
v 0.500000 -0.707107 -0.500000
v 0.270598 -0.923880 -0.270598
v 0.353553 0.923880 -0.146447
v 0.653281 0.707107 -0.270598
v 0.853553 0.382683 -0.353553
v 0.923879 -0.000000 -0.382683
v 0.853553 -0.382684 -0.353553
v 0.653281 -0.707107 -0.270598
v 0.353553 -0.923880 -0.146447
v 0.382683 0.923880 -0.000000
v 0.707107 0.707107 -0.000000
v 0.923879 0.382683 -0.000000
v 1.000000 -0.000000 -0.000000
v 0.923879 -0.382684 -0.000000
v 0.707107 -0.707107 -0.000000
v 0.382683 -0.923880 -0.000000
v 0.353553 0.923880 0.146446
v 0.653281 0.707107 0.270598
v 0.853553 0.382683 0.353553
v 0.923879 -0.000000 0.382683
v 0.853553 -0.382684 0.353553
v 0.653281 -0.707107 0.270598
v 0.353553 -0.923880 0.146446
v 0.270598 0.923880 0.270598
v 0.500000 0.707107 0.500000
v 0.653281 0.382683 0.653281
v 0.707106 -0.000000 0.707107
v 0.653281 -0.382684 0.653281
v 0.500000 -0.707107 0.500000
v 0.270598 -0.923880 0.270598
v 0.146446 0.923880 0.353553
v 0.270598 0.707107 0.653281
v 0.353553 0.382683 0.853553
v 0.382683 -0.000000 0.923879
v 0.353553 -0.382684 0.853553
v 0.270598 -0.707107 0.653281
v 0.146446 -0.923880 0.353553
v -0.000000 0.923880 0.382683
v -0.000000 0.707107 0.707106
v -0.000000 0.382683 0.923879
v -0.000000 -0.000000 1.000000
v -0.000000 -0.382684 0.923879
v -0.000000 -0.707107 0.707106
v -0.000000 -0.923880 0.382683
v -0.146447 0.923880 0.353553
v -0.270598 0.707107 0.653281
v -0.353554 0.382683 0.853553
v -0.382684 -0.000000 0.923879
v -0.353554 -0.382684 0.853553
v -0.270598 -0.707107 0.653281
v -0.146447 -0.923880 0.353553
v -0.270598 0.923880 0.270598
v -0.500000 0.707107 0.499999
v -0.653282 0.382683 0.653281
v -0.707107 -0.000000 0.707106
v -0.653282 -0.382684 0.653281
v -0.500000 -0.707107 0.499999
v -0.270598 -0.923880 0.270598
v -0.353553 0.923880 0.146446
v -0.653281 0.707107 0.270597
v -0.853553 0.382683 0.353553
v -0.923879 -0.000000 0.382683
v -0.853553 -0.382684 0.353553
v -0.653281 -0.707107 0.270597
v -0.353553 -0.923880 0.146446
v -0.382683 0.923880 -0.000000
v -0.707106 0.707107 -0.000000
v -0.923879 0.382683 -0.000001
v -1.000000 -0.000000 -0.000001
v -0.923879 -0.382684 -0.000001
v -0.707106 -0.707107 -0.000000
v -0.382683 -0.923880 -0.000000
v -0.353553 0.923880 -0.146447
v -0.653281 0.707107 -0.270598
v -0.853553 0.382683 -0.353554
v -0.923879 -0.000000 -0.382684
v -0.853553 -0.382684 -0.353554
v -0.653281 -0.707107 -0.270598
v -0.353553 -0.923880 -0.146447
v -0.270598 0.923880 -0.270598
v -0.499999 0.707107 -0.500000
v -0.653281 0.382683 -0.653282
v -0.707106 -0.000000 -0.707107
v -0.653281 -0.382684 -0.653282
v -0.499999 -0.707107 -0.500000
v -0.270598 -0.923880 -0.270598
v -0.146446 0.923880 -0.353553
v -0.270598 0.707107 -0.653281
v -0.353553 0.382683 -0.853553
v -0.382683 -0.000000 -0.923880
v -0.353553 -0.382684 -0.853553
v -0.270598 -0.707107 -0.653281
v -0.146446 -0.923880 -0.353553
vn 0.1098 -0.8264 -0.5522
vn 0.1915 -0.1915 -0.9626
vn 0.1632 0.5481 -0.8203
vn 0.0388 0.9800 -0.1949
vn 0.0388 -0.9800 -0.1949
vn 0.1632 -0.5481 -0.8203
vn 0.1915 0.1915 -0.9626
vn 0.1098 0.8264 -0.5522
vn 0.4647 0.5481 -0.6954
vn 0.1104 0.9800 -0.1653
vn 0.1104 -0.9800 -0.1653
vn 0.4647 -0.5481 -0.6954
vn 0.5453 0.1915 -0.8161
vn 0.3128 0.8264 -0.4681
vn 0.3128 -0.8264 -0.4681
vn 0.5453 -0.1915 -0.8161
vn 0.1653 -0.9800 -0.1104
vn 0.6954 -0.5481 -0.4647
vn 0.8161 0.1915 -0.5453
vn 0.4681 0.8264 -0.3128
vn 0.4681 -0.8264 -0.3128
vn 0.8161 -0.1915 -0.5453
vn 0.6954 0.5481 -0.4647
vn 0.1653 0.9800 -0.1104
vn 0.5522 0.8264 -0.1098
vn 0.5522 -0.8264 -0.1098
vn 0.9626 -0.1915 -0.1915
vn 0.8203 0.5481 -0.1632
vn 0.1949 0.9800 -0.0388
vn 0.1949 -0.9800 -0.0388
vn 0.8203 -0.5481 -0.1632
vn 0.9626 0.1915 -0.1915
vn 0.5522 -0.8264 0.1098
vn 0.9626 -0.1915 0.1915
vn 0.8203 0.5481 0.1632
vn 0.1949 0.9800 0.0388
vn 0.1949 -0.9800 0.0388
vn 0.8203 -0.5481 0.1632
vn 0.9626 0.1915 0.1915
vn 0.5522 0.8264 0.1098
vn 0.1653 0.9800 0.1104
vn 0.1653 -0.9800 0.1104
vn 0.6954 -0.5481 0.4647
vn 0.8161 0.1915 0.5453
vn 0.4681 0.8264 0.3128
vn 0.4681 -0.8264 0.3128
vn 0.8161 -0.1915 0.5453
vn 0.6954 0.5481 0.4647
vn 0.4647 -0.5481 0.6954
vn 0.5453 0.1915 0.8161
vn 0.3128 0.8264 0.4681
vn 0.3128 -0.8264 0.4681
vn 0.5453 -0.1915 0.8161
vn 0.4647 0.5481 0.6954
vn 0.1104 0.9800 0.1653
vn 0.1104 -0.9800 0.1653
vn 0.1098 -0.8264 0.5522
vn 0.1915 -0.1915 0.9626
vn 0.1632 0.5481 0.8203
vn 0.0388 0.9800 0.1949
vn 0.0388 -0.9800 0.1949
vn 0.1632 -0.5481 0.8203
vn 0.1915 0.1915 0.9626
vn 0.1098 0.8264 0.5522
vn -0.1915 -0.1915 0.9626
vn -0.1632 0.5481 0.8203
vn -0.0388 0.9800 0.1949
vn -0.0388 -0.9800 0.1949
vn -0.1632 -0.5481 0.8203
vn -0.1915 0.1915 0.9626
vn -0.1098 0.8264 0.5522
vn -0.1098 -0.8264 0.5522
vn -0.1104 -0.9800 0.1653
vn -0.4647 -0.5481 0.6954
vn -0.5453 0.1915 0.8161
vn -0.3128 0.8264 0.4681
vn -0.3128 -0.8264 0.4681
vn -0.5453 -0.1915 0.8161
vn -0.4647 0.5481 0.6954
vn -0.1104 0.9800 0.1653
vn -0.8161 0.1915 0.5453
vn -0.4681 0.8264 0.3128
vn -0.4681 -0.8264 0.3128
vn -0.8161 -0.1915 0.5453
vn -0.6954 0.5481 0.4647
vn -0.1653 0.9800 0.1104
vn -0.1653 -0.9800 0.1104
vn -0.6954 -0.5481 0.4647
vn -0.5522 -0.8264 0.1098
vn -0.9626 -0.1915 0.1915
vn -0.8203 0.5481 0.1632
vn -0.1949 0.9800 0.0388
vn -0.1949 -0.9800 0.0388
vn -0.8203 -0.5481 0.1632
vn -0.9626 0.1915 0.1915
vn -0.5522 0.8264 0.1098
vn -0.8203 0.5481 -0.1632
vn -0.1949 0.9800 -0.0388
vn -0.1949 -0.9800 -0.0388
vn -0.8203 -0.5481 -0.1632
vn -0.9626 0.1915 -0.1915
vn -0.5522 0.8264 -0.1098
vn -0.5522 -0.8264 -0.1098
vn -0.9626 -0.1915 -0.1915
vn -0.1653 -0.9800 -0.1104
vn -0.6954 -0.5481 -0.4647
vn -0.8161 0.1915 -0.5453
vn -0.4681 0.8264 -0.3128
vn -0.4681 -0.8264 -0.3128
vn -0.8161 -0.1915 -0.5453
vn -0.6954 0.5481 -0.4647
vn -0.1653 0.9800 -0.1104
vn -0.3128 0.8264 -0.4681
vn -0.3128 -0.8264 -0.4681
vn -0.5453 -0.1915 -0.8161
vn -0.4647 0.5481 -0.6954
vn -0.1104 0.9800 -0.1653
vn -0.1104 -0.9800 -0.1653
vn -0.4647 -0.5481 -0.6954
vn -0.5453 0.1915 -0.8161
vn -0.1098 -0.8264 -0.5522
vn -0.1915 -0.1915 -0.9626
vn -0.1632 0.5481 -0.8203
vn -0.0388 0.9800 -0.1949
vn -0.0388 -0.9800 -0.1949
vn -0.1632 -0.5481 -0.8203
vn -0.1915 0.1915 -0.9626
vn -0.1098 0.8264 -0.5522
usemtl None
s off
f 7//1 15//1 16//1
f 5//2 13//2 14//2
f 2//3 12//3 3//3
f 1//4 9//4 10//4
f 8//5 7//5 16//5
f 6//6 14//6 15//6
f 3//7 13//7 4//7
f 1//8 11//8 2//8
f 11//9 19//9 12//9
f 10//10 9//10 17//10
f 8//11 16//11 23//11
f 15//12 21//12 22//12
f 13//13 19//13 20//13
f 10//14 18//14 11//14
f 16//15 22//15 23//15
f 13//16 21//16 14//16
f 8//17 23//17 30//17
f 21//18 29//18 22//18
f 19//19 27//19 20//19
f 17//20 25//20 18//20
f 22//21 30//21 23//21
f 20//22 28//22 21//22
f 18//23 26//23 19//23
f 17//24 9//24 24//24
f 24//25 32//25 25//25
f 30//26 36//26 37//26
f 27//27 35//27 28//27
f 25//28 33//28 26//28
f 24//29 9//29 31//29
f 8//30 30//30 37//30
f 28//31 36//31 29//31
f 26//32 34//32 27//32
f 37//33 43//33 44//33
f 35//34 41//34 42//34
f 32//35 40//35 33//35
f 31//36 9//36 38//36
f 8//37 37//37 44//37
f 35//38 43//38 36//38
f 33//39 41//39 34//39
f 31//40 39//40 32//40
f 38//41 9//41 45//41
f 8//42 44//42 51//42
f 42//43 50//43 43//43
f 40//44 48//44 41//44
f 38//45 46//45 39//45
f 44//46 50//46 51//46
f 42//47 48//47 49//47
f 39//48 47//48 40//48
f 49//49 57//49 50//49
f 47//50 55//50 48//50
f 46//51 52//51 53//51
f 50//52 58//52 51//52
f 48//53 56//53 49//53
f 46//54 54//54 47//54
f 45//55 9//55 52//55
f 8//56 51//56 58//56
f 57//57 65//57 58//57
f 55//58 63//58 56//58
f 54//59 60//59 61//59
f 52//60 9//60 59//60
f 8//61 58//61 65//61
f 57//62 63//62 64//62
f 55//63 61//63 62//63
f 52//64 60//64 53//64
f 62//65 70//65 63//65
f 60//66 68//66 61//66
f 59//67 9//67 66//67
f 8//68 65//68 72//68
f 63//69 71//69 64//69
f 61//70 69//70 62//70
f 60//71 66//71 67//71
f 64//72 72//72 65//72
f 8//73 72//73 79//73
f 70//74 78//74 71//74
f 68//75 76//75 69//75
f 66//76 74//76 67//76
f 71//77 79//77 72//77
f 70//78 76//78 77//78
f 68//79 74//79 75//79
f 66//80 9//80 73//80
f 75//81 83//81 76//81
f 74//82 80//82 81//82
f 79//83 85//83 86//83
f 77//84 83//84 84//84
f 74//85 82//85 75//85
f 73//86 9//86 80//86
f 8//87 79//87 86//87
f 77//88 85//88 78//88
f 85//89 93//89 86//89
f 83//90 91//90 84//90
f 81//91 89//91 82//91
f 80//92 9//92 87//92
f 8//93 86//93 93//93
f 85//94 91//94 92//94
f 83//95 89//95 90//95
f 81//96 87//96 88//96
f 88//97 96//97 89//97
f 87//98 9//98 94//98
f 8//99 93//99 100//99
f 91//100 99//100 92//100
f 90//101 96//101 97//101
f 88//102 94//102 95//102
f 92//103 100//103 93//103
f 90//104 98//104 91//104
f 8//105 100//105 107//105
f 98//106 106//106 99//106
f 96//107 104//107 97//107
f 95//108 101//108 102//108
f 100//109 106//109 107//109
f 97//110 105//110 98//110
f 95//111 103//111 96//111
f 94//112 9//112 101//112
f 102//113 108//113 109//113
f 106//114 114//114 107//114
f 104//115 112//115 105//115
f 102//116 110//116 103//116
f 101//117 9//117 108//117
f 8//118 107//118 114//118
f 106//119 112//119 113//119
f 104//120 110//120 111//120
f 113//121 7//121 114//121
f 111//122 5//122 112//122
f 110//123 2//123 3//123
f 108//124 9//124 1//124
f 8//125 114//125 7//125
f 112//126 6//126 113//126
f 111//127 3//127 4//127
f 109//128 1//128 2//128
f 7//1 6//1 15//1
f 5//2 4//2 13//2
f 2//3 11//3 12//3
f 6//6 5//6 14//6
f 3//7 12//7 13//7
f 1//8 10//8 11//8
f 11//9 18//9 19//9
f 15//12 14//12 21//12
f 13//13 12//13 19//13
f 10//14 17//14 18//14
f 16//15 15//15 22//15
f 13//16 20//16 21//16
f 21//18 28//18 29//18
f 19//19 26//19 27//19
f 17//20 24//20 25//20
f 22//21 29//21 30//21
f 20//22 27//22 28//22
f 18//23 25//23 26//23
f 24//25 31//25 32//25
f 30//26 29//26 36//26
f 27//27 34//27 35//27
f 25//28 32//28 33//28
f 28//31 35//31 36//31
f 26//32 33//32 34//32
f 37//33 36//33 43//33
f 35//34 34//34 41//34
f 32//35 39//35 40//35
f 35//38 42//38 43//38
f 33//39 40//39 41//39
f 31//40 38//40 39//40
f 42//43 49//43 50//43
f 40//44 47//44 48//44
f 38//45 45//45 46//45
f 44//46 43//46 50//46
f 42//47 41//47 48//47
f 39//48 46//48 47//48
f 49//49 56//49 57//49
f 47//50 54//50 55//50
f 46//51 45//51 52//51
f 50//52 57//52 58//52
f 48//53 55//53 56//53
f 46//54 53//54 54//54
f 57//57 64//57 65//57
f 55//58 62//58 63//58
f 54//59 53//59 60//59
f 57//62 56//62 63//62
f 55//63 54//63 61//63
f 52//64 59//64 60//64
f 62//65 69//65 70//65
f 60//66 67//66 68//66
f 63//69 70//69 71//69
f 61//70 68//70 69//70
f 60//71 59//71 66//71
f 64//72 71//72 72//72
f 70//74 77//74 78//74
f 68//75 75//75 76//75
f 66//76 73//76 74//76
f 71//77 78//77 79//77
f 70//78 69//78 76//78
f 68//79 67//79 74//79
f 75//81 82//81 83//81
f 74//82 73//82 80//82
f 79//83 78//83 85//83
f 77//84 76//84 83//84
f 74//85 81//85 82//85
f 77//88 84//88 85//88
f 85//89 92//89 93//89
f 83//90 90//90 91//90
f 81//91 88//91 89//91
f 85//94 84//94 91//94
f 83//95 82//95 89//95
f 81//96 80//96 87//96
f 88//97 95//97 96//97
f 91//100 98//100 99//100
f 90//101 89//101 96//101
f 88//102 87//102 94//102
f 92//103 99//103 100//103
f 90//104 97//104 98//104
f 98//106 105//106 106//106
f 96//107 103//107 104//107
f 95//108 94//108 101//108
f 100//109 99//109 106//109
f 97//110 104//110 105//110
f 95//111 102//111 103//111
f 102//113 101//113 108//113
f 106//114 113//114 114//114
f 104//115 111//115 112//115
f 102//116 109//116 110//116
f 106//119 105//119 112//119
f 104//120 103//120 110//120
f 113//121 6//121 7//121
f 111//122 4//122 5//122
f 110//123 109//123 2//123
f 112//126 5//126 6//126
f 111//127 110//127 3//127
f 109//128 108//128 1//128
